<svg id="Layer_1" data-name="Layer 1" xmlns="http://www.w3.org/2000/svg" xmlns:xlink="http://www.w3.org/1999/xlink" viewBox="0 0 595.28 841.89"><defs><style>.cls-1,.cls-8{fill:none;}.cls-2{clip-path:url(#clip-path);}.cls-3{fill:#1878b9;}.cls-4{fill:url(#linear-gradient);}.cls-5{fill:#ffea00;}.cls-6{fill:#1d1d1b;}.cls-7{fill:#fff;}.cls-8{stroke:#fff;stroke-miterlimit:10;stroke-width:0.5px;}</style><clipPath id="clip-path"><rect id="_Rectangle_" data-name="&lt;Rectangle&gt;" class="cls-1" y="-0.02" width="595.28" height="841.92"/></clipPath><linearGradient id="linear-gradient" x1="592.28" y1="61.65" x2="1310.87" y2="780.24" gradientTransform="matrix(1, 0, 0, -1, -653.94, 841.89)" gradientUnits="userSpaceOnUse"><stop offset="0" stop-color="#a3c9e3"/><stop offset="0.5" stop-color="#1878b9"/><stop offset="1" stop-color="#0c3c5d"/></linearGradient></defs><title>DataReportCover</title><g id="_Clip_Group_" data-name="&lt;Clip Group&gt;"><g class="cls-2"><rect id="_Rectangle_2" data-name="&lt;Rectangle&gt;" class="cls-3" y="-0.02" width="595.28" height="841.92"/><rect id="_Rectangle_3" data-name="&lt;Rectangle&gt;" class="cls-4" width="595.28" height="841.89" transform="translate(595.28 841.89) rotate(-180)"/><g id="_Group_" data-name="&lt;Group&gt;"><circle id="_Path_" data-name="&lt;Path&gt;" class="cls-5" cx="44.75" cy="42.61" r="28.37"/><g id="use"><g id="shape2"><path id="_Path_2" data-name="&lt;Path&gt;" d="M66.34,47.58l.32.89,1.39-2.56-2.58-1.39.23,1h0a2.82,2.82,0,0,1-.65.08,2.75,2.75,0,1,1,2.74-2.75,2.66,2.66,0,0,1-.48,1.55l1.94,1a4.94,4.94,0,1,0-4.2,2.34,4.57,4.57,0,0,0,1.29-.17Z"/><path id="_Compound_Path_" data-name="&lt;Compound Path&gt;" d="M35.46,37.89a5.42,5.42,0,0,0-2.07.76,7,7,0,0,0-1.33,1.29,4.92,4.92,0,0,0,0,5.63,6.5,6.5,0,0,0,1.37,1.35,4.9,4.9,0,0,0,2.21.77,4.18,4.18,0,0,0,2.89-.82l.36-.22a2.35,2.35,0,0,1,0,.42v.42h2.18V38.08H38.87v.85l-.23-.17a5.2,5.2,0,0,0-2.08-.87A3.38,3.38,0,0,0,35.46,37.89Zm1.25,2.22a2.79,2.79,0,0,1,2.16,2.64,2.86,2.86,0,0,1-2,2.69,3,3,0,0,1-1.55,0,2.84,2.84,0,0,1-1.87-1.94,3.26,3.26,0,0,1,0-1.39,2.83,2.83,0,0,1,2.1-2A2.36,2.36,0,0,1,36.71,40.11Z"/><path id="_Path_3" data-name="&lt;Path&gt;" d="M46.51,37.91a4.33,4.33,0,0,0-1.3.59,1.4,1.4,0,0,1-.27.18,1.24,1.24,0,0,1,0-.3v-.3H42.74v9.41h2.18V44.83c0-1.56,0-2.8,0-3a2,2,0,0,1,.64-1.21,2.16,2.16,0,0,1,1.18-.58,1.86,1.86,0,0,1,1.31.27l.45.22s.1-.13.18-.31A6.52,6.52,0,0,1,49.51,39a1.13,1.13,0,0,0,.17-.26,5.57,5.57,0,0,0-1.37-.66A3.2,3.2,0,0,0,46.51,37.91Z"/><path id="_Compound_Path_2" data-name="&lt;Compound Path&gt;" d="M53.64,37.86l-.42.08a4.9,4.9,0,0,0-3.57,2.8,5.6,5.6,0,0,0-.31.85,3.65,3.65,0,0,0-.13,1.2A3.59,3.59,0,0,0,49.34,44a5,5,0,0,0,4.29,3.72,4.86,4.86,0,0,0,3.17-.83l.11-.08v.84a3.34,3.34,0,0,1-.23,1.65,3,3,0,0,1-3.54,1.2,4.3,4.3,0,0,1-1.41-.94l-.33-.33-.1.1-.78.69c-.37.32-.68.61-.69.63a4.07,4.07,0,0,0,1.05,1,7.42,7.42,0,0,0,2,1,5.08,5.08,0,0,0,1.94.12,5.61,5.61,0,0,0,3.23-1.75A5,5,0,0,0,59,49.4l.11-.39V43.54l0-5.46H56.91v.4a1.15,1.15,0,0,1,0,.39,3.31,3.31,0,0,1-.37-.22A5.38,5.38,0,0,0,55.07,38,4.85,4.85,0,0,0,53.64,37.86Zm1.06,2.23a2.82,2.82,0,0,1,2,1.74,3.61,3.61,0,0,1,.16.74,2.5,2.5,0,0,1-.2,1.45,3.26,3.26,0,0,1-1.75,1.41,3.11,3.11,0,0,1-1.63,0,2.85,2.85,0,0,1-1.86-2.08,2.6,2.6,0,0,1,0-1.11A2.76,2.76,0,0,1,54.7,40.09Z"/><path id="_Compound_Path_3" data-name="&lt;Compound Path&gt;" d="M24.83,37.91l-.49.13a4.38,4.38,0,0,0-1.36.6l-.26.18v-.74H20.54v14h2.18V46.9l.15.1a5.46,5.46,0,0,0,1.23.54,5,5,0,0,0,6.23-3.79,6.18,6.18,0,0,0,0-1.92,5,5,0,0,0-3.52-3.78,3.86,3.86,0,0,0-1.17-.15Zm1.5,2.28a2.78,2.78,0,0,1,1.8,3.42,3,3,0,0,1-1.38,1.62,3.63,3.63,0,0,1-1.26.33,3.26,3.26,0,0,1-2.28-1.16A1.92,1.92,0,0,1,22.73,43a2.1,2.1,0,0,1,.11-1,2.73,2.73,0,0,1,1.41-1.64A2.82,2.82,0,0,1,26.33,40.19Z"/></g></g><g id="_Group_2" data-name="&lt;Group&gt;"><path id="_Compound_Path_4" data-name="&lt;Compound Path&gt;" d="M96.73,30.76a5.11,5.11,0,0,0-2,.75,6.28,6.28,0,0,0-1.31,1.27,4.81,4.81,0,0,0,0,5.54,6.36,6.36,0,0,0,1.35,1.34,4.89,4.89,0,0,0,2.18.76,4.19,4.19,0,0,0,2.85-.81l.35-.22a2.35,2.35,0,0,1,0,.42v.41h2.15V31h-2.15v.84l-.23-.17a5.05,5.05,0,0,0-2-.86A3.25,3.25,0,0,0,96.73,30.76ZM98,33a2.74,2.74,0,0,1,2.13,2.6,2.82,2.82,0,0,1-2,2.65,2.94,2.94,0,0,1-1.53,0,2.81,2.81,0,0,1-1.84-1.92,3.46,3.46,0,0,1,0-1.36,2.76,2.76,0,0,1,2.07-2A2.28,2.28,0,0,1,98,33Z"/><path id="_Path_4" data-name="&lt;Path&gt;" d="M107.62,30.78a4.24,4.24,0,0,0-1.29.58,1.41,1.41,0,0,1-.26.17,1.12,1.12,0,0,1,0-.29V31H103.9v9.27h2.15V37.6c0-1.54,0-2.76,0-2.94a2,2,0,0,1,.63-1.19,2.21,2.21,0,0,1,1.16-.58,1.85,1.85,0,0,1,1.29.27l.44.22s.1-.13.18-.3a6.93,6.93,0,0,1,.77-1.24,1,1,0,0,0,.17-.25,5,5,0,0,0-1.35-.66A3.17,3.17,0,0,0,107.62,30.78Z"/><path id="_Compound_Path_5" data-name="&lt;Compound Path&gt;" d="M86.25,30.78l-.48.12a4.12,4.12,0,0,0-1.33.6l-.26.17V31H82V44.71h2.15V39.63l.14.1a4.86,4.86,0,0,0,6.09-.79,4.87,4.87,0,0,0,1.27-2.4,6.37,6.37,0,0,0,0-1.9,4.91,4.91,0,0,0-3.46-3.72,3.81,3.81,0,0,0-1.15-.15ZM87.73,33A2.74,2.74,0,0,1,89.5,36.4,2.85,2.85,0,0,1,88.15,38a3.58,3.58,0,0,1-1.25.33,3.29,3.29,0,0,1-2.24-1.14,1.87,1.87,0,0,1-.47-1.4,2.16,2.16,0,0,1,.1-1,2.7,2.7,0,0,1,1.39-1.62A2.84,2.84,0,0,1,87.73,33Z"/><g id="_Group_3" data-name="&lt;Group&gt;"><path id="_Compound_Path_6" data-name="&lt;Compound Path&gt;" class="cls-6" d="M125.33,40.41a4.85,4.85,0,1,1,4.84-4.85v1.08h-7.33a2.72,2.72,0,0,0,2.49,1.63,2.69,2.69,0,0,0,2.16-1.08l1.7,1.3A4.8,4.8,0,0,1,125.33,40.41Zm-2.49-5.92h5a2.71,2.71,0,0,0-5,0Z"/></g><rect id="_Path_5" data-name="&lt;Path&gt;" x="131.13" y="26.64" width="2.15" height="13.77"/><g id="_Group_4" data-name="&lt;Group&gt;"><g id="_Group_5" data-name="&lt;Group&gt;"><path id="_Compound_Path_7" data-name="&lt;Compound Path&gt;" d="M97,51.42a3.45,3.45,0,0,0-.65-2.06,5.06,5.06,0,0,0-1-.94,4,4,0,0,0-1.5-.55,2.68,2.68,0,0,0-.8,0,3.94,3.94,0,0,0-1.5.63l-.17.13V48H89.86v6.82h1.58V51.4A2,2,0,0,1,93,49.48a1.75,1.75,0,0,1,.88,0,2,2,0,0,1,1.53,1.45,2.27,2.27,0,0,1,0,.5v3.41H97Z"/><path id="_Compound_Path_8" data-name="&lt;Compound Path&gt;" d="M105,44.51V54.83h1.61v-3.5a2,2,0,0,1,1.59-1.95,1.72,1.72,0,0,1,.9,0,2.08,2.08,0,0,1,1.55,1.48,1.91,1.91,0,0,1,0,.51v3.48h1.61V51.35a3.59,3.59,0,0,0-.67-2.1,4.88,4.88,0,0,0-1-1,4.08,4.08,0,0,0-1.53-.57,2.74,2.74,0,0,0-.81,0,3.94,3.94,0,0,0-1.54.65l-.17.13v-4Z"/><g id="_Group_6" data-name="&lt;Group&gt;"><path id="_Compound_Path_9" data-name="&lt;Compound Path&gt;" class="cls-6" d="M85.6,54.83a3.57,3.57,0,1,1,3.57-3.56A3.57,3.57,0,0,1,85.6,54.83Zm0-5.55a2,2,0,1,0,2,2A2,2,0,0,0,85.6,49.28Z"/></g><g id="_Group_7" data-name="&lt;Group&gt;"><path id="_Compound_Path_10" data-name="&lt;Compound Path&gt;" class="cls-6" d="M116.53,54.83a3.57,3.57,0,1,1,3.56-3.57v.79H114.7a2,2,0,0,0,1.83,1.2,1.9,1.9,0,0,0,1.19-.4l1,1.26A3.52,3.52,0,0,1,116.53,54.83Zm-1.83-4.35h3.65a2,2,0,0,0-1.82-1.2A2,2,0,0,0,114.7,50.48Z"/></g><g id="_Group_8" data-name="&lt;Group&gt;"><g id="_Group_9" data-name="&lt;Group&gt;"><path id="_Path_6" data-name="&lt;Path&gt;" class="cls-6" d="M104.29,54.83a3.57,3.57,0,0,1-3.57-3.57V46h1.58v5.24a2,2,0,0,0,2,2Z"/></g><g id="_Group_10" data-name="&lt;Group&gt;"><rect id="_Path_7" data-name="&lt;Path&gt;" class="cls-6" x="101.51" y="47.67" width="2.78" height="1.58"/></g></g><path id="_Compound_Path_11" data-name="&lt;Compound Path&gt;" d="M127,47.72l-.31.05a3.6,3.6,0,0,0-2.59,2,6.32,6.32,0,0,0-.22.62,2.93,2.93,0,0,0-.09.87,2.9,2.9,0,0,0,.09.86,3.45,3.45,0,0,0,.9,1.6A3.42,3.42,0,0,0,127,54.84a3.45,3.45,0,0,0,2.3-.6l.08-.05v.6a2.4,2.4,0,0,1-.17,1.2,2.14,2.14,0,0,1-2.56.87,3.13,3.13,0,0,1-1-.68l-.23-.24-.08.07-.56.5a4.68,4.68,0,0,0-.5.46,3.21,3.21,0,0,0,.76.73,5.17,5.17,0,0,0,1.48.75,3.53,3.53,0,0,0,1.41.09,4.09,4.09,0,0,0,2.34-1.27,3.65,3.65,0,0,0,.62-1.19l.08-.29V47.87h-1.58v.29a1.12,1.12,0,0,1,0,.29,1.37,1.37,0,0,1-.27-.16,3.94,3.94,0,0,0-1-.49A3.49,3.49,0,0,0,127,47.72Zm.76,1.61a2,2,0,0,1,1.46,1.26,3.73,3.73,0,0,1,.12.54,1.86,1.86,0,0,1-.14,1,2.38,2.38,0,0,1-1.28,1,2.21,2.21,0,0,1-1.17,0,2.06,2.06,0,0,1-1.35-1.5,1.85,1.85,0,0,1,0-.81A2,2,0,0,1,127.75,49.33Z"/><path id="_Path_8" data-name="&lt;Path&gt;" d="M134.63,47.75a3.57,3.57,0,1,0,1.19,7l.32,0a1.87,1.87,0,0,1,.11.32,1.15,1.15,0,0,0,.12.3l.51-.93.49-.92-.22-.12c-.57-.32-1.63-.89-1.65-.89a1.76,1.76,0,0,0,.09.35,1.36,1.36,0,0,1,.08.37,3.13,3.13,0,0,1-.47,0,1.69,1.69,0,0,1-.7-.1,2,2,0,0,1-1.27-1.43,1.87,1.87,0,0,1,0-.91,1.75,1.75,0,0,1,.54-.92,1.91,1.91,0,0,1,1.81-.56A2,2,0,0,1,137,52.18l-.12.24s1.35.74,1.37.74a1.34,1.34,0,0,0,.16-.28,3.55,3.55,0,0,0,0-3.28A3.65,3.65,0,0,0,134.63,47.75Z"/></g><rect id="_Path_9" data-name="&lt;Path&gt;" x="140" y="44.7" width="1.58" height="7.16"/><rect id="_Rectangle_4" data-name="&lt;Rectangle&gt;" x="140" y="53.23" width="1.61" height="1.61" rx="0.28" ry="0.28"/></g><g id="_Group_11" data-name="&lt;Group&gt;"><path id="_Path_10" data-name="&lt;Path&gt;" class="cls-6" d="M115.48,40.41a4.85,4.85,0,1,1,4.18-7.3l-1.84,1.09a2.71,2.71,0,1,0,0,2.73L119.67,38A4.87,4.87,0,0,1,115.48,40.41Z"/></g><path id="_Path_11" data-name="&lt;Path&gt;" d="M138.87,34.53l-.22-.08c-.91-.33-1.46-.56-1.46-1s.38-.73,1.05-.73a3,3,0,0,1,1.79.73l.2.14,1.25-1.67-.19-.15a5,5,0,0,0-3.1-1.11c-2.07,0-3.47,1.16-3.47,2.89s1.42,2.35,2.65,2.81l.12,0c.83.32,1.62.61,1.62,1.15s-.43.81-1.17.81a3.61,3.61,0,0,1-2.28-.94l-.21-.16L134.19,39l.19.15a5.72,5.72,0,0,0,3.5,1.29c2.55,0,3.69-1.5,3.69-3C141.57,35.54,140,34.93,138.87,34.53Z"/></g></g><g id="_Group_12" data-name="&lt;Group&gt;"><circle id="_Ellipse_" data-name="&lt;Ellipse&gt;" class="cls-7" cx="562.78" cy="237.98" r="2.83"/><circle id="_Ellipse_2" data-name="&lt;Ellipse&gt;" class="cls-7" cx="462.87" cy="375.5" r="2.83"/><circle id="_Ellipse_3" data-name="&lt;Ellipse&gt;" class="cls-7" cx="326.03" cy="409.17" r="2.83"/><circle id="_Ellipse_4" data-name="&lt;Ellipse&gt;" class="cls-7" cx="392.7" cy="476.45" r="2.83"/><circle id="_Ellipse_5" data-name="&lt;Ellipse&gt;" class="cls-7" cx="472.03" cy="792.79" r="2.83"/><circle id="_Ellipse_6" data-name="&lt;Ellipse&gt;" class="cls-7" cx="391.36" cy="818.07" r="2.83"/><circle id="_Ellipse_7" data-name="&lt;Ellipse&gt;" class="cls-7" cx="543.31" cy="585.67" r="2.83"/><circle id="_Ellipse_8" data-name="&lt;Ellipse&gt;" class="cls-7" cx="232.19" cy="250.33" r="2.83"/><circle id="_Ellipse_9" data-name="&lt;Ellipse&gt;" class="cls-7" cx="46.53" cy="391.98" r="2.83"/><circle id="_Ellipse_10" data-name="&lt;Ellipse&gt;" class="cls-7" cx="521.03" cy="13.83" r="2.83"/><circle id="_Ellipse_11" data-name="&lt;Ellipse&gt;" class="cls-7" cx="475.19" cy="35.75" r="5.67"/><circle id="_Ellipse_12" data-name="&lt;Ellipse&gt;" class="cls-7" cx="460.03" cy="278.5" r="5.67"/><circle id="_Ellipse_13" data-name="&lt;Ellipse&gt;" class="cls-7" cx="18.03" cy="256" r="5.67"/><circle id="_Ellipse_14" data-name="&lt;Ellipse&gt;" class="cls-7" cx="232.19" cy="391.98" r="5.67"/><circle id="_Ellipse_15" data-name="&lt;Ellipse&gt;" class="cls-7" cx="260.23" cy="580" r="5.67"/><circle id="_Ellipse_16" data-name="&lt;Ellipse&gt;" class="cls-7" cx="531.7" cy="700.24" r="5.67"/><circle id="_Ellipse_17" data-name="&lt;Ellipse&gt;" class="cls-7" cx="567.03" cy="127" r="4.25"/><circle id="_Ellipse_18" data-name="&lt;Ellipse&gt;" class="cls-7" cx="488.99" cy="127" r="4.25"/><circle id="_Ellipse_19" data-name="&lt;Ellipse&gt;" class="cls-7" cx="385.53" cy="11" r="4.25"/><circle id="_Ellipse_20" data-name="&lt;Ellipse&gt;" class="cls-7" cx="357.76" cy="358.67" r="4.25"/><circle id="_Ellipse_21" data-name="&lt;Ellipse&gt;" class="cls-7" cx="344.39" cy="291.17" r="4.25"/><circle id="_Ellipse_22" data-name="&lt;Ellipse&gt;" class="cls-7" cx="181.46" cy="491.37" r="4.25"/><circle id="_Ellipse_23" data-name="&lt;Ellipse&gt;" class="cls-7" cx="119.03" cy="307.5" r="4.25"/><circle id="_Ellipse_24" data-name="&lt;Ellipse&gt;" class="cls-7" cx="131.78" cy="446.67" r="4.25"/><circle id="_Ellipse_25" data-name="&lt;Ellipse&gt;" class="cls-7" cx="46.7" cy="224" r="4.25"/><circle id="_Ellipse_26" data-name="&lt;Ellipse&gt;" class="cls-7" cx="321.78" cy="487.5" r="4.25"/><circle id="_Ellipse_27" data-name="&lt;Ellipse&gt;" class="cls-7" cx="416.75" cy="574.33" r="4.25"/><circle id="_Ellipse_28" data-name="&lt;Ellipse&gt;" class="cls-7" cx="555.19" cy="813.82" r="4.25"/><circle id="_Ellipse_29" data-name="&lt;Ellipse&gt;" class="cls-7" cx="370.7" cy="767.33" r="4.25"/><circle id="_Ellipse_30" data-name="&lt;Ellipse&gt;" class="cls-7" cx="438.7" cy="665.31" r="4.25"/><polygon id="_Path_12" data-name="&lt;Path&gt;" class="cls-8" points="460.03 278.5 488.99 127 567.03 127 562.78 237.98 460.03 278.5"/><polyline id="_Path_13" data-name="&lt;Path&gt;" class="cls-8" points="488.99 127 475.19 35.75 567.03 127 603.28 105.75"/><polygon id="_Path_14" data-name="&lt;Path&gt;" class="cls-8" points="475.19 35.75 521.03 13.84 385.53 11 475.19 35.75"/><polyline id="_Path_15" data-name="&lt;Path&gt;" class="cls-8" points="599.03 11 567.03 127 521.03 13.84 601.53 0"/><polyline id="_Path_16" data-name="&lt;Path&gt;" class="cls-8" points="385.53 11 361.53 -10.5 516.78 -29.5 521.03 13.84"/><polyline id="_Path_17" data-name="&lt;Path&gt;" class="cls-8" points="181.53 492 131.78 446.67 46.53 391.98"/><polyline id="_Path_18" data-name="&lt;Path&gt;" class="cls-8" points="46.53 391.98 119.03 307.5 131.78 446.67 232.19 391.98 326.03 409.17 462.87 375.5 392.7 476.45 416.75 574.33 438.7 665.31 370.7 767.33 391.37 818.07 472.03 792.79 555.19 813.82 531.7 700.24 438.7 665.31 260.23 580 416.75 574.33 543.31 585.67 531.7 700.24 472.03 792.79 464.53 856"/><polyline id="_Path_19" data-name="&lt;Path&gt;" class="cls-8" points="239.53 849.5 370.7 767.33 327.53 890.5 396.53 877 391.37 818.07"/><polyline id="_Path_20" data-name="&lt;Path&gt;" class="cls-8" points="534.53 871 555.19 813.82 611.03 809.57 611.03 759.07 555.19 813.82"/><polyline id="_Path_21" data-name="&lt;Path&gt;" class="cls-8" points="46.53 391.98 -24.47 346.5 119.03 307.5 232.19 391.98 357.76 358.67 460.03 278.5 462.87 375.5 357.76 358.67 344.39 291.17"/><polyline id="_Path_22" data-name="&lt;Path&gt;" class="cls-8" points="232.19 250.33 344.39 291.17 460.03 278.5 567.03 127 615.08 141.89"/><polyline id="_Path_23" data-name="&lt;Path&gt;" class="cls-8" points="-21.97 156.5 46.7 224 18.03 256 119.03 307.5 46.7 224 232.19 250.33 357.76 358.67 326.03 409.17 392.7 476.45 260.23 580 181.46 491.37 232.19 391.98 321.78 487.5 392.7 476.45"/><polyline id="_Path_24" data-name="&lt;Path&gt;" class="cls-8" points="-36.47 233 18.03 256 -30.47 283.5"/><polyline id="_Path_25" data-name="&lt;Path&gt;" class="cls-8" points="119.03 307.5 232.19 250.33 232.19 391.98 260.23 580 321.78 487.5 326.03 409.17"/><polyline id="_Path_26" data-name="&lt;Path&gt;" class="cls-8" points="472.03 792.79 438.7 665.31 543.31 585.67 622.16 589.97 610.03 647.5 531.7 700.24 620.03 688.92"/><polygon id="_Path_27" data-name="&lt;Path&gt;" class="cls-8" points="562.78 237.98 610.03 256.5 613.03 164.5 562.78 237.98"/><line id="_Path_28" data-name="&lt;Path&gt;" class="cls-8" x1="617.53" y1="512" x2="543.31" y2="585.67"/></g></g></g></svg>