<svg id="Layer_1" data-name="Layer 1" xmlns="http://www.w3.org/2000/svg" viewBox="0 0 200 200"><defs><style>.cls-1{fill:#feeb00;}</style></defs><title>Logo CMYK</title><circle class="cls-1" cx="100" cy="100" r="99"/><g id="use"><g id="shape2"><path d="M67.61,83.53a18.44,18.44,0,0,0-7.23,2.66,23.23,23.23,0,0,0-4.65,4.5,17.13,17.13,0,0,0-.16,19.64,23.33,23.33,0,0,0,4.79,4.72,17.33,17.33,0,0,0,7.72,2.7c3.3.4,6.39-.5,10.09-2.87a13,13,0,0,1,1.25-.76,6,6,0,0,1,.09,1.47v1.47h7.6V84.2h-7.6v3l-.82-.61a18.39,18.39,0,0,0-7.26-3A11.64,11.64,0,0,0,67.61,83.53ZM72,91.29a9.78,9.78,0,0,1,7.54,9.22,10,10,0,0,1-7.18,9.39,10.64,10.64,0,0,1-5.4-.07A10,10,0,0,1,60.4,103a11.86,11.86,0,0,1,0-4.82,9.84,9.84,0,0,1,7.35-7A8.15,8.15,0,0,1,72,91.29Z"/><path d="M106.15,83.61a15,15,0,0,0-4.55,2.06,6.83,6.83,0,0,1-.91.61,3.09,3.09,0,0,1-.09-1v-1H93v32.86h7.61v-9.31c0-5.44.07-9.75.17-10.41a7.11,7.11,0,0,1,2.25-4.2,7.48,7.48,0,0,1,4.1-2,6.64,6.64,0,0,1,4.58.94l1.56.77c.07,0,.34-.45.64-1.07a23.81,23.81,0,0,1,2.71-4.37,3.17,3.17,0,0,0,.59-.9c0-.26-3.11-1.78-4.75-2.32A11.35,11.35,0,0,0,106.15,83.61Z"/><path d="M131,83.44l-1.47.26a17.27,17.27,0,0,0-12.46,9.77,20.49,20.49,0,0,0-1.06,3,12.79,12.79,0,0,0-.45,4.17,12.75,12.75,0,0,0,.45,4.17,16.4,16.4,0,0,0,4.33,7.71,16.66,16.66,0,0,0,21.7,2.37l.38-.28v2.92c0,3.32-.16,4.4-.82,5.76-1.9,3.93-7.86,5.95-12.34,4.2a14.89,14.89,0,0,1-4.93-3.3l-1.12-1.12-.38.34-2.72,2.39c-1.28,1.12-2.37,2.13-2.4,2.21-.11.26,1.86,2.15,3.66,3.51a24.78,24.78,0,0,0,7.13,3.63,17.41,17.41,0,0,0,6.78.42,19.55,19.55,0,0,0,11.27-6.11,17.14,17.14,0,0,0,3-5.74l.38-1.38.05-19.07,0-19.06h-7.62v1.39a4.46,4.46,0,0,1-.11,1.38,9.75,9.75,0,0,1-1.29-.78,18.29,18.29,0,0,0-5-2.33A17.09,17.09,0,0,0,131,83.44Zm3.69,7.77a9.87,9.87,0,0,1,7,6.06,14.19,14.19,0,0,1,.53,2.6,8.75,8.75,0,0,1-.67,5.07,11.5,11.5,0,0,1-6.12,4.91,10.73,10.73,0,0,1-5.68,0,9.85,9.85,0,0,1-6.48-7.24,8.25,8.25,0,0,1,0-3.89A9.6,9.6,0,0,1,134.72,91.21Z"/><path d="M30.48,83.61c-.19.06-1,.25-1.71.44a15.37,15.37,0,0,0-4.72,2.11l-.92.62V84.2h-7.6V133h7.6V115l.52.37A18.5,18.5,0,0,0,28,117.21,17.37,17.37,0,0,0,49.69,104a21.4,21.4,0,0,0,0-6.73A17.47,17.47,0,0,0,37.4,84.1a12.86,12.86,0,0,0-4.06-.52C32,83.56,30.67,83.56,30.48,83.61Zm5.24,7.94a9.69,9.69,0,0,1,6.28,12,10.14,10.14,0,0,1-4.79,5.65,12.57,12.57,0,0,1-4.43,1.16,11.55,11.55,0,0,1-8-4c-1.28-1.61-1.57-2.49-1.66-5a7.22,7.22,0,0,1,.38-3.51,9.56,9.56,0,0,1,4.91-5.72A10,10,0,0,1,35.72,91.55Z"/><path d="M168.11,83.77a17.19,17.19,0,1,0,5.72,33.89,12.68,12.68,0,0,1,1.56-.22s.26.74.52,1.57a5.12,5.12,0,0,0,.55,1.44c0-.06,1.18-2.08,2.47-4.5l2.39-4.41-1.07-.59c-2.74-1.52-7.85-4.27-7.94-4.27a8.87,8.87,0,0,0,.42,1.68,7.48,7.48,0,0,1,.39,1.76,14.28,14.28,0,0,1-2.28.11,7.39,7.39,0,0,1-3.35-.47,9.78,9.78,0,0,1-6.11-6.9,8.54,8.54,0,0,1,.09-4.37,8.34,8.34,0,0,1,2.59-4.43,9.13,9.13,0,0,1,8.73-2.68,9.45,9.45,0,0,1,6.56,13.71,10.25,10.25,0,0,0-.56,1.16c.14.12,6.52,3.54,6.61,3.54a7.83,7.83,0,0,0,.78-1.34,17.1,17.1,0,0,0-.11-15.79A17.5,17.5,0,0,0,168.11,83.77Z"/></g></g></svg>